<svg height="47.336" viewBox="0 0 68.111 47.336" width="68.111" xmlns="http://www.w3.org/2000/svg"><g fill="#2f2e33"><path d="m4271.094 89.255h-2.133a.954.954 0 0 1 -.954-.954v-4.582h-2.363v2.945a2.593 2.593 0 0 1 -2.59 2.591h-34.382a.957.957 0 0 1 -.6-.209l-12.9-10.322a.952.952 0 0 1 -.358-.745v-21.658a2.593 2.593 0 0 1 2.59-2.59h4.631v-1.574a2.593 2.593 0 0 1 2.591-2.591h28.548a2.593 2.593 0 0 1 2.591 2.591v1.573h7.289a2.593 2.593 0 0 1 2.59 2.59v2.945h2.363v-4.58a.954.954 0 0 1 .954-.954h2.133a3.643 3.643 0 0 1 3.639 3.639v28.246a3.643 3.643 0 0 1 -3.639 3.639m-1.179-1.909h1.179a1.731 1.731 0 0 0 1.729-1.73v-28.247a1.731 1.731 0 0 0 -1.729-1.73h-1.179v4.581a.954.954 0 0 1 -.954.954h-4.271a.954.954 0 0 1 -.954-.954v-3.9a.682.682 0 0 0 -.682-.682h-8.243a.955.955 0 0 1 -.955-.954v-2.527a.683.683 0 0 0 -.682-.682h-28.548a.683.683 0 0 0 -.683.682v2.528a.954.954 0 0 1 -.954.954h-5.589a.683.683 0 0 0 -.682.682v21.2l12.284 9.827h34.047a.683.683 0 0 0 .682-.682v-3.9a.954.954 0 0 1 .954-.954h4.271a.954.954 0 0 1 .954.954z" transform="translate(-4206.621 -41.919)"/><path d="m4280.858 28.735h-3.931a.955.955 0 0 1 -.954-.954v-2.981h-5.873a1.915 1.915 0 0 1 -1.914-1.913v-1.8a1.915 1.915 0 0 1 1.914-1.913h17.584a1.915 1.915 0 0 1 1.913 1.913v1.8a1.916 1.916 0 0 1 -1.913 1.913h-5.872v2.976a.955.955 0 0 1 -.955.954m-2.976-1.909h2.021v-2.971a.955.955 0 0 1 .954-.954h6.827v-1.8h-17.589v1.8h6.831a.955.955 0 0 1 .955.954z" transform="translate(-4246.563 -19.179)"/><path d="m4186.516 91.165h-2.344a1.916 1.916 0 0 1 -1.913-1.913v-20.973a1.916 1.916 0 0 1 1.913-1.913h2.344a1.915 1.915 0 0 1 1.913 1.913v7.566h2.977a.954.954 0 0 1 .954.954v3.931a.954.954 0 0 1 -.954.954h-2.977v7.566a1.915 1.915 0 0 1 -1.913 1.913m-2.344-22.89v20.977h2.349v-8.526a.955.955 0 0 1 .954-.954h2.977v-2.016h-2.977a.955.955 0 0 1 -.954-.954v-8.521z" transform="translate(-4182.259 -54.491)"/></g></svg>